<svg width="30" height="16" viewBox="0 0 30 16" fill="none" xmlns="http://www.w3.org/2000/svg">
<path d="M27.3887 8.24695C28.1209 7.53136 28.5388 6.55421 28.5505 5.53047C28.5623 4.50673 28.1668 3.52026 27.4512 2.78806C26.7357 2.05587 25.7585 1.63793 24.7348 1.6262C23.711 1.61446 22.7246 2.00988 21.9924 2.72548C21.2644 3.443 20.8507 4.41996 20.842 5.44209L9.43292 5.31128C9.44769 4.28923 9.0565 3.30303 8.34514 2.56901C7.62955 1.83682 6.6524 1.41888 5.62866 1.40714C4.60492 1.39541 3.61845 1.79083 2.88625 2.50642C2.15406 3.22202 1.73613 4.19916 1.72439 5.2229C1.71265 6.24664 2.10807 7.23312 2.82367 7.96531C2.09147 8.6809 1.67354 9.65805 1.6618 10.6818C1.65006 11.7055 2.04549 12.692 2.76108 13.4242C3.47667 14.1564 4.45382 14.5743 5.47756 14.5861C6.5013 14.5978 7.48778 14.2024 8.21997 13.4868C8.94797 12.7693 9.36167 11.7923 9.37033 10.7702L20.7794 10.901C20.7646 11.923 21.1558 12.9092 21.8672 13.6433C22.5828 14.3754 23.5599 14.7934 24.5837 14.8051C25.6074 14.8169 26.5939 14.4214 27.3261 13.7058C28.0583 12.9902 28.4762 12.0131 28.4879 10.9894C28.4997 9.96562 28.1043 8.97914 27.3887 8.24695Z" stroke="#53C473" stroke-width="2" stroke-linecap="round" stroke-linejoin="round"/>
</svg>
