<svg width="38" height="38" viewBox="0 0 38 38" fill="none" xmlns="http://www.w3.org/2000/svg">
<path d="M19 0C15.2422 0 11.5687 1.11433 8.44417 3.20208C5.31964 5.28982 2.88436 8.25722 1.4463 11.729C0.0082324 15.2008 -0.368031 19.0211 0.365088 22.7067C1.09821 26.3924 2.90778 29.7778 5.56498 32.435C8.22218 35.0922 11.6077 36.9018 15.2933 37.6349C18.9789 38.368 22.7992 37.9918 26.271 36.5537C29.7428 35.1156 32.7102 32.6804 34.7979 29.5558C36.8857 26.4313 38 22.7578 38 19C37.9947 13.9625 35.9912 9.13288 32.4292 5.57085C28.8671 2.00881 24.0375 0.00531967 19 0ZM19 35.0769C15.8203 35.0769 12.712 34.134 10.0681 32.3675C7.42431 30.6009 5.36369 28.09 4.14687 25.1524C2.93004 22.2147 2.61167 18.9822 3.232 15.8635C3.85233 12.7449 5.38351 9.8803 7.63191 7.6319C9.8803 5.3835 12.7449 3.85232 15.8636 3.23199C18.9822 2.61166 22.2147 2.93004 25.1524 4.14686C28.09 5.36368 30.6009 7.4243 32.3675 10.0681C34.134 12.712 35.0769 15.8203 35.0769 19C35.0721 23.2624 33.3767 27.3488 30.3628 30.3628C27.3488 33.3767 23.2624 35.0721 19 35.0769ZM10.2308 15.3462C10.2308 14.9126 10.3594 14.4887 10.6002 14.1282C10.8411 13.7676 11.1835 13.4867 11.5841 13.3207C11.9847 13.1548 12.4255 13.1114 12.8508 13.196C13.276 13.2806 13.6667 13.4894 13.9733 13.796C14.2799 14.1026 14.4887 14.4932 14.5733 14.9185C14.6579 15.3437 14.6144 15.7845 14.4485 16.1851C14.2826 16.5857 14.0016 16.9281 13.6411 17.169C13.2805 17.4099 12.8567 17.5385 12.4231 17.5385C11.8416 17.5385 11.284 17.3075 10.8729 16.8963C10.4618 16.4852 10.2308 15.9276 10.2308 15.3462ZM27.7692 15.3462C27.7692 15.7797 27.6407 16.2036 27.3998 16.5641C27.1589 16.9247 26.8165 17.2056 26.4159 17.3716C26.0153 17.5375 25.5745 17.5809 25.1492 17.4963C24.724 17.4117 24.3333 17.2029 24.0267 16.8963C23.7201 16.5897 23.5113 16.1991 23.4267 15.7738C23.3422 15.3486 23.3856 14.9078 23.5515 14.5072C23.7174 14.1066 23.9984 13.7642 24.3589 13.5233C24.7195 13.2824 25.1433 13.1538 25.5769 13.1538C26.1584 13.1538 26.716 13.3848 27.1271 13.796C27.5383 14.2071 27.7692 14.7647 27.7692 15.3462ZM27.5719 27.0385C27.6777 27.2048 27.7487 27.3908 27.7807 27.5853C27.8127 27.7798 27.805 27.9788 27.7581 28.1703C27.7112 28.3617 27.626 28.5417 27.5078 28.6994C27.3895 28.8571 27.2406 28.9892 27.0699 29.0879C26.8993 29.1865 26.7104 29.2496 26.5147 29.2734C26.3191 29.2972 26.1206 29.2811 25.9313 29.2262C25.742 29.1713 25.5657 29.0786 25.4132 28.9538C25.2606 28.829 25.1348 28.6747 25.0435 28.5C23.6788 26.1414 21.5339 24.8461 19 24.8461C16.4661 24.8461 14.3213 26.1433 12.9565 28.5C12.8652 28.6747 12.7394 28.829 12.5868 28.9538C12.4343 29.0786 12.258 29.1713 12.0687 29.2262C11.8794 29.2811 11.6809 29.2972 11.4853 29.2734C11.2896 29.2496 11.1007 29.1865 10.9301 29.0879C10.7594 28.9892 10.6105 28.8571 10.4922 28.6994C10.374 28.5417 10.2888 28.3617 10.2419 28.1703C10.195 27.9788 10.1873 27.7798 10.2193 27.5853C10.2513 27.3908 10.3223 27.2048 10.4281 27.0385C12.308 23.7884 15.432 21.9231 19 21.9231C22.568 21.9231 25.692 23.7865 27.5719 27.0385Z" fill="#529ADB"/>
</svg>
