<svg width="22" height="23" viewBox="0 0 22 23" fill="none" xmlns="http://www.w3.org/2000/svg">
<g filter="url(#filter0_d_89_14018)">
<path d="M0 21C0 21.54 0.45 22 1 22H14C14.56 22 15 21.54 15 21V20H0V21ZM7.5 8C3.75 8 0 10 0 14H15C15 10 11.25 8 7.5 8ZM2.62 12C3.73 10.45 6.09 10 7.5 10C8.91 10 11.27 10.45 12.38 12H2.62ZM0 16H15V18H0V16ZM17 4V0H15V4H10L10.23 6H19.79L18.39 20H17V22H18.72C19.56 22 20.25 21.35 20.35 20.53L22 4H17Z" fill="#E78B37"/>
</g>
<defs>
<filter id="filter0_d_89_14018" x="0" y="0" width="22" height="24" filterUnits="userSpaceOnUse" color-interpolation-filters="sRGB">
<feFlood flood-opacity="0" result="BackgroundImageFix"/>
<feColorMatrix in="SourceAlpha" type="matrix" values="0 0 0 0 0 0 0 0 0 0 0 0 0 0 0 0 0 0 127 0" result="hardAlpha"/>
<feOffset dy="2"/>
<feComposite in2="hardAlpha" operator="out"/>
<feColorMatrix type="matrix" values="0 0 0 0 0 0 0 0 0 0 0 0 0 0 0 0 0 0 0.25 0"/>
<feBlend mode="normal" in2="BackgroundImageFix" result="effect1_dropShadow_89_14018"/>
<feBlend mode="normal" in="SourceGraphic" in2="effect1_dropShadow_89_14018" result="shape"/>
</filter>
</defs>
</svg>
