<svg width="27" height="27" viewBox="0 0 27 27" fill="none" xmlns="http://www.w3.org/2000/svg">
<path d="M16.875 7.5L23.625 9.75V15.375H20.25V24.375C20.25 24.6734 20.1315 24.9595 19.9205 25.1705C19.7095 25.3815 19.4234 25.5 19.125 25.5H7.875C7.57663 25.5 7.29048 25.3815 7.0795 25.1705C6.86853 24.9595 6.75 24.6734 6.75 24.375V15.375H3.375V9.75L10.125 7.5C10.125 8.39511 10.4806 9.25355 11.1135 9.88649C11.7464 10.5194 12.6049 10.875 13.5 10.875C14.3951 10.875 15.2536 10.5194 15.8865 9.88649C16.5194 9.25355 16.875 8.39511 16.875 7.5Z" stroke="#529ADB" stroke-width="2" stroke-linecap="round" stroke-linejoin="round"/>
</svg>
