<svg width="38" height="38" viewBox="0 0 38 38" fill="none" xmlns="http://www.w3.org/2000/svg">
<path d="M12.5 25.4285H26M18.9999 35.7142C23.4328 35.7142 27.6842 33.9533 30.8187 30.8187C33.9533 27.6842 35.7142 23.4328 35.7142 18.9999C35.7142 14.567 33.9533 10.3157 30.8187 7.18115C27.6842 4.04661 23.4328 2.28564 18.9999 2.28564C14.567 2.28564 10.3157 4.04661 7.18115 7.18115C4.04661 10.3157 2.28564 14.567 2.28564 18.9999C2.28564 23.4328 4.04661 27.6842 7.18115 30.8187C10.3157 33.9533 14.567 35.7142 18.9999 35.7142Z" stroke="#C5C5C5" stroke-width="3" stroke-linecap="round" stroke-linejoin="round"/>
<circle cx="12" cy="15" r="2" fill="#D9D9D9"/>
<circle cx="25" cy="15" r="2" fill="#D9D9D9"/>
</svg>
