<svg width="38" height="38" viewBox="0 0 38 38" fill="none" xmlns="http://www.w3.org/2000/svg">
<g clip-path="url(#clip0_33_13201)">
<path d="M19 3.5625C23.0943 3.5625 27.0209 5.18895 29.916 8.08404C32.8111 10.9791 34.4375 14.9057 34.4375 19C34.4375 23.0943 32.8111 27.0209 29.916 29.916C27.0209 32.8111 23.0943 34.4375 19 34.4375C14.9057 34.4375 10.9791 32.8111 8.08404 29.916C5.18895 27.0209 3.5625 23.0943 3.5625 19C3.5625 14.9057 5.18895 10.9791 8.08404 8.08404C10.9791 5.18895 14.9057 3.5625 19 3.5625ZM19 38C24.0391 38 28.8718 35.9982 32.435 32.435C35.9982 28.8718 38 24.0391 38 19C38 13.9609 35.9982 9.12816 32.435 5.56497C28.8718 2.00178 24.0391 0 19 0C13.9609 0 9.12816 2.00178 5.56497 5.56497C2.00178 9.12816 0 13.9609 0 19C0 24.0391 2.00178 28.8718 5.56497 32.435C9.12816 35.9982 13.9609 38 19 38ZM24.3734 29.2051C25.0934 28.5371 25.1305 27.409 24.4625 26.6891C23.4012 25.5535 21.568 24.3438 19 24.3438C16.432 24.3438 14.5988 25.5535 13.5449 26.6891C12.877 27.409 12.9141 28.5371 13.634 29.2051C14.3539 29.873 15.482 29.8359 16.15 29.116C16.6992 28.5297 17.6344 27.8988 19.0074 27.8988C20.3805 27.8988 21.3156 28.5297 21.8648 29.116C22.5328 29.8359 23.6609 29.873 24.3809 29.2051H24.3734ZM13.0922 20.1875C14.4059 20.1875 15.4672 19.1262 15.4672 17.8125C15.4672 17.7012 15.4598 17.5898 15.4449 17.4859L16.2539 17.7531C16.8773 17.9609 17.5453 17.627 17.7531 17.0035C17.9609 16.3801 17.627 15.7121 17.0035 15.5043L9.87852 13.1293C9.25508 12.9215 8.58711 13.2555 8.3793 13.8789C8.17148 14.5023 8.50547 15.1703 9.12891 15.3781L11.4074 16.1352C10.977 16.5656 10.7172 17.1594 10.7172 17.8125C10.7172 19.1262 11.7785 20.1875 13.0922 20.1875ZM27.3422 17.8125C27.3422 17.152 27.075 16.5508 26.6371 16.1203L28.8785 15.3707C29.502 15.1629 29.8359 14.4875 29.6281 13.8715C29.4203 13.2555 28.7449 12.9141 28.1289 13.1219L21.0039 15.4969C20.3805 15.7047 20.0465 16.3801 20.2543 16.9961C20.4621 17.6121 21.1375 17.9535 21.7535 17.7457L22.6219 17.4562C22.607 17.5676 22.5996 17.6863 22.5996 17.8051C22.5996 19.1187 23.6609 20.1801 24.9746 20.1801C26.2883 20.1801 27.3496 19.1187 27.3496 17.8051L27.3422 17.8125Z" fill="#E14040"/>
</g>
<defs>
<clipPath id="clip0_33_13201">
<rect width="38" height="38" fill="white"/>
</clipPath>
</defs>
</svg>
