<svg width="24" height="24" viewBox="0 0 24 24" fill="none" xmlns="http://www.w3.org/2000/svg">
<g clip-path="url(#clip0_89_14027)">
<path fill-rule="evenodd" clip-rule="evenodd" d="M6.79806 2.88407C8.02553 2.39243 9.36711 2.25841 10.6676 2.4975C11.9681 2.7366 13.1742 3.33903 14.1466 4.2351C15.1189 5.13117 15.8177 6.28425 16.162 7.56091C16.5062 8.83756 16.482 10.1856 16.0921 11.4491L20.4861 15.1671C20.8819 15.5034 21.2037 15.9181 21.4312 16.3851C21.6588 16.852 21.7871 17.361 21.8081 17.88C21.8292 18.399 21.7425 18.9167 21.5534 19.4005C21.3644 19.8843 21.0772 20.3237 20.71 20.691C20.3427 21.0582 19.9033 21.3454 19.4195 21.5345C18.9357 21.7235 18.4179 21.8102 17.899 21.7892C17.38 21.7681 16.871 21.6398 16.404 21.4122C15.9371 21.1847 15.5224 20.8629 15.1861 20.4671L11.4691 16.0731C10.2055 16.4631 8.85729 16.4874 7.58049 16.1431C6.30369 15.7988 5.1505 15.1 4.25438 14.1275C3.35826 13.155 2.75586 11.9486 2.51689 10.6479C2.27792 9.34731 2.41215 8.00559 2.90406 6.77807C3.26206 5.88407 4.38406 5.77107 4.96706 6.40507L8.17006 9.88307L9.61606 9.59507L9.90606 8.14607L6.42606 4.94807C5.79206 4.36507 5.90306 3.24207 6.79806 2.88407ZM8.80506 4.42007L11.5681 6.96007C11.8901 7.25607 12.0341 7.69807 11.9481 8.12507L11.4781 10.4791C11.4296 10.7213 11.3105 10.9438 11.1357 11.1184C10.961 11.293 10.7384 11.4119 10.4961 11.4601L8.14606 11.9271C7.93573 11.9689 7.71819 11.9559 7.51434 11.8894C7.31049 11.8228 7.12719 11.7049 6.98206 11.5471L4.43806 8.78507C4.3345 9.64521 4.45613 10.5175 4.79103 11.3165C5.12593 12.1155 5.66261 12.8138 6.34852 13.3431C7.03443 13.8723 7.84604 14.2144 8.70386 14.3357C9.56168 14.457 10.4363 14.3534 11.2421 14.0351C11.4864 13.9381 11.7551 13.9202 12.0101 13.9839C12.2652 14.0476 12.4939 14.1896 12.6641 14.3901L16.7141 19.1761C16.8711 19.3625 17.0652 19.5142 17.284 19.6216C17.5028 19.7291 17.7415 19.7899 17.985 19.8003C18.2285 19.8107 18.4715 19.7704 18.6986 19.6819C18.9258 19.5934 19.132 19.4588 19.3044 19.2864C19.4767 19.1141 19.6114 18.9078 19.6999 18.6807C19.7883 18.4535 19.8287 18.2105 19.8183 17.967C19.8079 17.7235 19.7471 17.4848 19.6396 17.266C19.5322 17.0472 19.3804 16.8531 19.1941 16.6961L14.4091 12.6461C14.2086 12.4759 14.0665 12.2472 14.0029 11.9922C13.9392 11.7371 13.9571 11.4684 14.0541 11.2241C14.3727 10.4183 14.4765 9.5436 14.3553 8.68565C14.2342 7.82769 13.8922 7.01594 13.3628 6.32995C12.8335 5.64395 12.1351 5.10725 11.3359 4.77245C10.5367 4.43764 9.66428 4.31621 8.80406 4.42007H8.80506Z" fill="#8362CA"/>
</g>
<defs>
<clipPath id="clip0_89_14027">
<rect width="24" height="24" fill="white"/>
</clipPath>
</defs>
</svg>
