<svg width="11" height="22" viewBox="0 0 11 22" fill="none" xmlns="http://www.w3.org/2000/svg">
<path d="M4.35294 22V19.3722C3.31373 19.1278 2.41647 18.6593 1.66118 17.9667C0.905883 17.2741 0.352157 16.2963 0 15.0333L2.17647 14.1167C2.47059 15.0944 2.90706 15.838 3.48588 16.3472C4.06471 16.8565 4.82431 17.1111 5.76471 17.1111C6.56863 17.1111 7.2502 16.9225 7.80941 16.5452C8.36863 16.168 8.64784 15.5825 8.64706 14.7889C8.64706 14.0759 8.43137 13.5109 8 13.0937C7.56863 12.6765 6.56863 12.2027 5 11.6722C3.31373 11.1222 2.15686 10.4651 1.52941 9.70078C0.901961 8.93648 0.588235 8.00474 0.588235 6.90556C0.588235 5.58148 1 4.55278 1.82353 3.81944C2.64706 3.08611 3.4902 2.66852 4.35294 2.56667V0H6.70588V2.56667C7.68627 2.72963 8.49529 3.10159 9.13294 3.68256C9.77059 4.26352 10.2361 4.97119 10.5294 5.80556L8.35294 6.78333C8.11765 6.13148 7.78431 5.64259 7.35294 5.31667C6.92157 4.99074 6.33333 4.82778 5.58823 4.82778C4.72549 4.82778 4.06863 5.02659 3.61765 5.42422C3.16667 5.82185 2.94118 6.31563 2.94118 6.90556C2.94118 7.57778 3.23529 8.10741 3.82353 8.49444C4.41176 8.88148 5.43137 9.28889 6.88235 9.71667C8.23529 10.1241 9.26 10.771 9.95647 11.6576C10.6529 12.5441 11.0008 13.5675 11 14.7278C11 16.1741 10.5882 17.2741 9.76471 18.0278C8.94118 18.7815 7.92157 19.25 6.70588 19.4333V22H4.35294Z" fill="#4BCC6F"/>
</svg>
