<svg width="28" height="20" viewBox="0 0 28 20" fill="none" xmlns="http://www.w3.org/2000/svg">
<path d="M27.39 8.08001L20.7 5.21001L18.16 0.87001L18.08 0.75001C17.8928 0.516136 17.6554 0.327318 17.3853 0.197504C17.1153 0.0676903 16.8196 0.000197122 16.52 9.90168e-06H8.52C8.1898 -0.00102903 7.86448 0.0797039 7.57308 0.235002C7.28168 0.3903 7.03326 0.615331 6.85 0.89001L3.46 6.00001H1C0.734784 6.00001 0.48043 6.10537 0.292893 6.2929C0.105357 6.48044 0 6.73479 0 7.00001V16C0 16.2652 0.105357 16.5196 0.292893 16.7071C0.48043 16.8947 0.734784 17 1 17H3.14C3.37028 17.8474 3.873 18.5954 4.5706 19.1287C5.26819 19.6621 6.1219 19.951 7 19.951C7.8781 19.951 8.73181 19.6621 9.4294 19.1287C10.127 18.5954 10.6297 17.8474 10.86 17H17.14C17.3703 17.8474 17.873 18.5954 18.5706 19.1287C19.2682 19.6621 20.1219 19.951 21 19.951C21.8781 19.951 22.7318 19.6621 23.4294 19.1287C24.127 18.5954 24.6297 17.8474 24.86 17H27C27.2652 17 27.5196 16.8947 27.7071 16.7071C27.8946 16.5196 28 16.2652 28 16V9.00001C27.9998 8.80372 27.9419 8.61181 27.8334 8.44822C27.725 8.28462 27.5707 8.15656 27.39 8.08001ZM7 18C6.60444 18 6.21776 17.8827 5.88886 17.6629C5.55996 17.4432 5.30362 17.1308 5.15224 16.7654C5.00087 16.3999 4.96126 15.9978 5.03843 15.6098C5.1156 15.2219 5.30608 14.8655 5.58579 14.5858C5.86549 14.3061 6.22186 14.1156 6.60982 14.0384C6.99778 13.9613 7.39991 14.0009 7.76537 14.1523C8.13082 14.3036 8.44318 14.56 8.66294 14.8889C8.8827 15.2178 9 15.6044 9 16C9 16.5304 8.78929 17.0391 8.41421 17.4142C8.03914 17.7893 7.53043 18 7 18ZM21 18C20.6044 18 20.2178 17.8827 19.8889 17.6629C19.56 17.4432 19.3036 17.1308 19.1522 16.7654C19.0009 16.3999 18.9613 15.9978 19.0384 15.6098C19.1156 15.2219 19.3061 14.8655 19.5858 14.5858C19.8655 14.3061 20.2219 14.1156 20.6098 14.0384C20.9978 13.9613 21.3999 14.0009 21.7654 14.1523C22.1308 14.3036 22.4432 14.56 22.6629 14.8889C22.8827 15.2178 23 15.6044 23 16C23 16.5304 22.7893 17.0391 22.4142 17.4142C22.0391 17.7893 21.5304 18 21 18ZM26 15H24.86C24.6297 14.1526 24.127 13.4046 23.4294 12.8713C22.7318 12.338 21.8781 12.049 21 12.049C20.1219 12.049 19.2682 12.338 18.5706 12.8713C17.873 13.4046 17.3703 14.1526 17.14 15H10.86C10.6297 14.1526 10.127 13.4046 9.4294 12.8713C8.73181 12.338 7.8781 12.049 7 12.049C6.1219 12.049 5.26819 12.338 4.5706 12.8713C3.873 13.4046 3.37028 14.1526 3.14 15H2V8.00001H4C4.16471 7.99916 4.32665 7.95764 4.47145 7.87913C4.61625 7.80063 4.73941 7.68757 4.83 7.55001L8.54 2.00001H16.54L19.17 6.50001C19.2773 6.68702 19.4422 6.83434 19.64 6.92001L26 9.66001V15Z" fill="#D6AD45"/>
</svg>
